<?xml version="1.0" encoding="UTF-8" standalone="no"?>
<svg
   xmlns:dc="http://purl.org/dc/elements/1.1/"
   xmlns:cc="http://creativecommons.org/ns#"
   xmlns:rdf="http://www.w3.org/1999/02/22-rdf-syntax-ns#"
   xmlns:svg="http://www.w3.org/2000/svg"
   xmlns="http://www.w3.org/2000/svg"
   xmlns:sodipodi="http://sodipodi.sourceforge.net/DTD/sodipodi-0.dtd"
   xmlns:inkscape="http://www.inkscape.org/namespaces/inkscape"
   version="1.0"
   width="300.000000pt"
   height="300.000000pt"
   viewBox="0 0 300.000000 300.000000"
   preserveAspectRatio="xMidYMid meet"
   id="svg32"
   sodipodi:docname="logo.svg"
   inkscape:version="0.92.5 (2060ec1f9f, 2020-04-08)">
  <metadata
     id="metadata38">
    <rdf:RDF>
      <cc:Work
         rdf:about="">
        <dc:format>image/svg+xml</dc:format>
        <dc:type
           rdf:resource="http://purl.org/dc/dcmitype/StillImage" />
        <dc:title></dc:title>
      </cc:Work>
    </rdf:RDF>
  </metadata>
  <defs
     id="defs36" />
  <sodipodi:namedview
     pagecolor="#ffffff"
     bordercolor="#666666"
     borderopacity="1"
     objecttolerance="10"
     gridtolerance="10"
     guidetolerance="10"
     inkscape:pageopacity="0"
     inkscape:pageshadow="2"
     inkscape:window-width="1366"
     inkscape:window-height="652"
     id="namedview34"
     showgrid="false"
     inkscape:zoom="0.59"
     inkscape:cx="-105.08475"
     inkscape:cy="19.757146"
     inkscape:window-x="0"
     inkscape:window-y="27"
     inkscape:window-maximized="1"
     inkscape:current-layer="svg32" />
  <g
     id="g3762"
     transform="translate(12.711864,-33.050847)">
    <path
       sodipodi:nodetypes="sssss"
       inkscape:connector-curvature="0"
       id="path3743"
       d="m 252.68767,171.12995 c 13.36996,11.37254 -3.20113,35.5358 -20.11953,41.74565 -16.91841,6.20985 -46.3361,-2.19874 -41.14742,-19.2578 10.42677,-34.28057 3.79695,-36.17573 20.11953,-41.74565 9.6462,-3.29167 25.56252,6.00123 41.14742,19.2578 z"
       style="fill:#ffcc00;stroke-width:0.6837436" />
    <g
       style="fill:#000000;stroke:none"
       id="g30"
       transform="matrix(0.1,0,0,-0.1,-17.796609,319.0678)">
      <path
         inkscape:connector-curvature="0"
         id="path2"
         d="m 1832,2061 c -15,-9 -72,-274 -72,-333 0,-78 -81,-233 -118,-226 -33,6 -44,47 -38,148 3,52 12,120 21,150 19,71 19,77 -5,85 -46,15 -56,0 -75,-108 -20,-118 -43,-184 -80,-233 -30,-40 -49,-43 -69,-11 -23,37 -26,81 -11,179 16,108 16,109 -65,136 l -55,19 -5,51 c -6,56 -31,92 -65,92 -30,0 -45,-19 -45,-59 0,-27 8,-42 42,-74 l 42,-40 -22,-94 c -58,-257 -172,-332 -172,-113 0,41 7,102 15,135 22,92 20,105 -14,105 -17,0 -32,-4 -36,-10 -3,-5 -19,-1 -38,10 -54,33 -94,27 -142,-23 -95,-100 -104,-345 -13,-376 44,-16 84,4 122,61 l 34,49 13,-43 c 11,-33 22,-47 51,-61 33,-16 40,-16 70,-4 61,25 118,142 148,300 11,53 14,57 33,51 36,-11 38,-17 28,-108 -12,-99 -2,-176 28,-216 13,-19 29,-26 61,-28 48,-4 74,15 106,74 22,40 34,44 34,10 0,-29 35,-74 66,-86 38,-15 80,7 114,58 16,25 30,50 31,56 0,6 7,-10 14,-35 18,-57 44,-81 89,-82 45,-1 84,26 115,83 l 24,43 14,-47 c 14,-47 56,-86 94,-86 24,0 81,42 105,77 l 21,32 12,-40 c 9,-30 21,-44 47,-57 34,-16 37,-15 72,3 22,12 46,38 61,64 l 24,44 16,-44 c 22,-58 67,-85 113,-70 41,14 88,77 117,154 24,67 26,77 9,77 -7,0 -25,-33 -40,-73 -43,-115 -103,-157 -128,-92 -14,38 -12,159 5,235 21,97 21,100 -20,100 -19,0 -35,-4 -35,-10 0,-5 -15,-1 -32,10 -99,60 -193,-29 -222,-211 -8,-44 -56,-122 -91,-145 -25,-17 -27,-16 -48,5 -20,20 -22,31 -22,144 1,106 5,140 35,255 29,114 32,135 20,142 -18,12 -31,12 -48,1 -15,-9 -72,-274 -72,-333 0,-98 -93,-242 -144,-222 -54,21 -46,243 17,462 23,79 23,83 6,92 -22,12 -30,12 -47,1 z m -604,-141 c 3,-30 2,-32 -12,-21 -19,16 -22,65 -3,59 6,-3 13,-20 15,-38 z M 982,1817 c 18,-28 -35,-218 -77,-279 -48,-71 -85,-43 -85,65 0,86 23,158 65,203 29,31 39,35 62,29 15,-3 31,-12 35,-18 z m 1467,6 c 20,-18 20,-20 6,-88 -21,-99 -45,-160 -78,-200 -50,-62 -77,-38 -77,68 0,87 24,163 65,204 37,37 54,40 84,16 z" />
      <path
         inkscape:connector-curvature="0"
         id="path4"
         d="m 626,2034 c -28,-28 -12,-84 24,-84 23,0 60,33 60,54 0,20 -28,46 -50,46 -10,0 -26,-7 -34,-16 z" />
      <path
         inkscape:connector-curvature="0"
         id="path6"
         d="m 1590,2031 c -16,-31 -12,-59 10,-71 39,-21 90,32 68,73 -12,24 -64,23 -78,-2 z" />
      <path
         inkscape:connector-curvature="0"
         id="path8"
         d="m 605,1881 c -3,-5 -19,-101 -35,-213 -37,-245 -37,-248 -53,-252 -145,-42 -218,-118 -221,-232 -1,-61 18,-88 74,-105 107,-32 199,80 225,275 l 7,49 71,-5 c 40,-3 140,-24 222,-46 279,-76 395,-80 592,-18 205,64 413,95 523,77 113,-19 210,-43 205,-51 -3,-4 2,-10 10,-14 12,-4 9,-15 -16,-55 -46,-74 -48,-120 -8,-219 30,-77 31,-84 16,-99 -9,-9 -19,-14 -22,-11 -9,8 -45,195 -45,229 0,36 23,84 58,122 14,15 21,27 14,27 -20,0 -80,-90 -87,-130 -4,-23 0,-72 10,-121 16,-79 16,-83 -1,-96 -10,-7 -18,-12 -20,-10 -1,1 -5,48 -8,105 -8,128 2,167 55,221 23,23 37,41 32,41 -5,0 -27,-18 -50,-41 -41,-40 -66,-102 -58,-144 2,-11 4,-56 4,-100 2,-98 9,-114 44,-91 24,16 25,16 31,-9 7,-28 27,-33 46,-9 12,13 16,12 35,-12 l 22,-27 27,36 28,37 30,-21 c 45,-32 51,-17 52,123 1,116 -1,126 -26,171 -15,26 -24,47 -20,47 4,0 35,-24 69,-54 35,-30 71,-57 80,-60 39,-11 73,-14 78,-6 9,14 -42,66 -77,80 -18,7 -73,33 -122,57 -169,85 -418,130 -583,104 -77,-12 -237,-51 -383,-92 -57,-17 -103,-22 -195,-22 -126,0 -154,5 -385,67 -69,19 -151,37 -182,41 -41,4 -58,11 -58,21 0,7 14,104 31,215 17,111 28,207 25,215 -6,16 -52,19 -61,5 z m -91,-565 c -28,-132 -67,-190 -130,-190 -42,0 -54,15 -54,69 0,54 31,117 72,149 39,29 109,57 120,47 4,-3 0,-37 -8,-75 z m 1833,-18 c 17,-18 37,-51 43,-74 12,-41 11,-227 -2,-239 -4,-4 -17,0 -30,9 -31,22 -35,21 -53,-15 -9,-16 -21,-29 -27,-27 -19,7 -87,190 -87,237 -1,44 38,131 59,131 12,0 31,-59 51,-160 9,-47 17,-73 18,-59 1,29 -25,186 -35,213 -11,29 30,18 63,-16 z" />
      <path
         inkscape:connector-curvature="0"
         id="path10"
         d="m 908,1258 c 19,-19 14,-38 -11,-38 -34,0 -57,-30 -57,-73 0,-30 4,-37 23,-41 43,-7 88,-5 82,4 -3,5 -6,35 -6,67 0,73 -6,93 -27,93 -12,0 -13,-3 -4,-12 z m 12,-98 c 0,-18 -7,-33 -17,-38 -29,-15 -43,-3 -43,38 0,41 14,53 43,38 10,-5 17,-20 17,-38 z" />
      <path
         inkscape:connector-curvature="0"
         id="path12"
         d="m 980,1260 c 0,-5 7,-10 15,-10 8,0 15,5 15,10 0,6 -7,10 -15,10 -8,0 -15,-4 -15,-10 z" />
      <path
         inkscape:connector-curvature="0"
         id="path14"
         d="m 1360,1260 c 0,-5 7,-10 15,-10 8,0 15,5 15,10 0,6 -7,10 -15,10 -8,0 -15,-4 -15,-10 z" />
      <path
         inkscape:connector-curvature="0"
         id="path16"
         d="m 1538,1258 c 7,-7 12,-41 12,-81 0,-65 -1,-68 -22,-65 -20,3 -24,11 -28,53 -5,48 -6,50 -35,50 -22,0 -30,-5 -33,-20 -2,-18 -2,-18 8,-3 18,28 40,10 40,-32 0,-42 -15,-59 -33,-40 -9,9 -7,15 7,26 16,11 17,14 4,14 -20,0 -42,-26 -35,-43 4,-10 28,-14 89,-15 45,0 77,2 71,5 -9,3 -13,30 -13,84 0,75 -1,79 -22,79 -17,0 -19,-3 -10,-12 z" />
      <path
         inkscape:connector-curvature="0"
         id="path18"
         d="m 1053,1228 c -6,-7 -7,-38 -4,-68 6,-51 8,-55 34,-58 15,-2 27,1 27,7 0,6 -9,11 -20,11 -17,0 -20,7 -20,40 0,35 3,40 23,41 h 22 l -23,10 c -13,5 -20,13 -17,19 9,14 -11,12 -22,-2 z" />
      <path
         inkscape:connector-curvature="0"
         id="path20"
         d="m 747,1202 c -20,-22 -22,-73 -5,-90 15,-15 65,-16 74,-1 4,8 -1,9 -15,4 -24,-7 -51,9 -51,31 0,9 11,14 29,14 36,0 46,13 31,40 -13,25 -42,26 -63,2 z m 47,-23 c -7,-11 -44,-12 -44,-1 0,4 5,13 12,20 13,13 42,-4 32,-19 z" />
      <path
         inkscape:connector-curvature="0"
         id="path22"
         d="m 970,1211 c 0,-6 5,-11 10,-11 14,0 12,-74 -2,-88 -9,-9 -4,-12 23,-12 19,0 29,4 22,8 -6,4 -13,30 -15,57 -2,38 -7,51 -20,53 -10,2 -18,-1 -18,-7 z" />
      <path
         inkscape:connector-curvature="0"
         id="path24"
         d="m 1147,1202 c -26,-29 -22,-78 8,-98 23,-15 27,-15 50,0 48,32 30,116 -25,116 -9,0 -24,-8 -33,-18 z m 52,-6 c 19,-22 10,-80 -13,-84 -22,-5 -36,14 -36,49 0,24 16,49 31,49 4,0 12,-6 18,-14 z" />
      <path
         inkscape:connector-curvature="0"
         id="path26"
         d="m 1255,1210 c -3,-5 -1,-10 4,-10 16,0 14,-87 -1,-93 -7,-3 5,-5 27,-5 22,0 32,2 22,5 -28,7 -19,74 11,89 15,8 20,14 12,19 -6,4 -17,1 -25,-5 -11,-9 -15,-9 -15,-1 0,14 -27,15 -35,1 z" />
      <path
         inkscape:connector-curvature="0"
         id="path28"
         d="m 1350,1210 c 0,-5 5,-10 10,-10 15,0 12,-87 -2,-93 -7,-3 3,-5 22,-5 19,0 29,2 23,5 -8,3 -13,25 -13,59 0,47 -2,54 -20,54 -11,0 -20,-4 -20,-10 z" />
    </g>
  </g>
</svg>
